HIERARCHY
ROOT joint_Root
{
	OFFSET 0.0 0.0 0.0
	CHANNELS 6 Xposition Yposition Zposition Zrotation Xrotation Yrotation 
	JOINT Hips
	{
		OFFSET 4.5925 91.4895 -427.239
		CHANNELS 6 Xposition Yposition Zposition Zrotation Xrotation Yrotation 
		JOINT Spine
		{
			OFFSET 15.7357 0.0 0.0
			CHANNELS 6 Xposition Yposition Zposition Zrotation Xrotation Yrotation 
			JOINT Chest
			{
				OFFSET 8.98455 -0.406207 0.0
				CHANNELS 6 Xposition Yposition Zposition Zrotation Xrotation Yrotation 
				JOINT Neck
				{
					OFFSET 16.3773 0.0 0.0
					CHANNELS 6 Xposition Yposition Zposition Zrotation Xrotation Yrotation 
					JOINT Head
					{
						OFFSET 6.45672 0.0 0.0
						CHANNELS 6 Xposition Yposition Zposition Zrotation Xrotation Yrotation 
						End Site
						{
							OFFSET 0.0 0.0 0.0
						}
					}
				}
				JOINT Shoulder_L
				{
					OFFSET 12.9942 -0.242716 4.98039
					CHANNELS 6 Xposition Yposition Zposition Zrotation Xrotation Yrotation 
					JOINT UpperArm_L
					{
						OFFSET 5.34809 0.0 0.0
						CHANNELS 6 Xposition Yposition Zposition Zrotation Xrotation Yrotation 
						JOINT LowerArm_L
						{
							OFFSET 24.3286 1.87007e-05 0.0
							CHANNELS 6 Xposition Yposition Zposition Zrotation Xrotation Yrotation 
							JOINT Hand_L
							{
								OFFSET 22.2916 0.0 0.0
								CHANNELS 6 Xposition Yposition Zposition Zrotation Xrotation Yrotation 
								End Site
								{
									OFFSET 0.0 0.0 0.0
								}
							}
						}
					}
				}
				JOINT Shoulder_R
				{
					OFFSET 12.9945 -0.242716 -4.98039
					CHANNELS 6 Xposition Yposition Zposition Zrotation Xrotation Yrotation 
					JOINT UpperArm_R
					{
						OFFSET -5.34813 0.0 0.0
						CHANNELS 6 Xposition Yposition Zposition Zrotation Xrotation Yrotation 
						JOINT LowerArm_R
						{
							OFFSET -24.3289 0.000322201 0.0
							CHANNELS 6 Xposition Yposition Zposition Zrotation Xrotation Yrotation 
							JOINT Hand_R
							{
								OFFSET -22.2915 -0.000108084 0.0
								CHANNELS 6 Xposition Yposition Zposition Zrotation Xrotation Yrotation 
								End Site
								{
									OFFSET 0.0 0.0 0.0
								}
							}
						}
					}
				}
			}
		}
		JOINT UpperLeg_L
		{
			OFFSET -2.19248 -6.46944 0.0
			CHANNELS 6 Xposition Yposition Zposition Zrotation Xrotation Yrotation 
			JOINT LowerLeg_L
			{
				OFFSET 39.0811 0.0 -1.23785e-05
				CHANNELS 6 Xposition Yposition Zposition Zrotation Xrotation Yrotation 
				JOINT Foot_L
				{
					OFFSET 40.9854 0.0 -1.26872e-05
					CHANNELS 6 Xposition Yposition Zposition Zrotation Xrotation Yrotation 
					JOINT Toes_L
					{
						OFFSET 11.7543 0.0 0.0
						CHANNELS 6 Xposition Yposition Zposition Zrotation Xrotation Yrotation 
						End Site
						{
							OFFSET 0.0 0.0 0.0
						}
					}
				}
			}
		}
		JOINT UpperLeg_R
		{
			OFFSET -2.19251 6.46944 0.0
			CHANNELS 6 Xposition Yposition Zposition Zrotation Xrotation Yrotation 
			JOINT LowerLeg_R
			{
				OFFSET -39.0811 -0.00228153 -0.0401928
				CHANNELS 6 Xposition Yposition Zposition Zrotation Xrotation Yrotation 
				JOINT Foot_R
				{
					OFFSET -40.9854 0.0 0.0
					CHANNELS 6 Xposition Yposition Zposition Zrotation Xrotation Yrotation 
					JOINT Toes_R
					{
						OFFSET -11.7543 0.0 0.0
						CHANNELS 6 Xposition Yposition Zposition Zrotation Xrotation Yrotation 
						End Site
						{
							OFFSET 0.0 0.0 0.0
						}
					}
				}
			}
		}
	}
}
MOTION
Frames:	6
Frame Time:	0.0333333
0.000000 0.000000 0.000000 0.000000 0.000000 -0.000000 1.993260 89.939200 -36.917500 89.092200 -3.317450 4.020290 15.735700 0.000005 -0.000001 86.546300 80.846200 -86.631600 8.984550 -0.406207 -0.000000 10.509000 -1.097330 -0.069602 16.377300 -0.000001 -0.000001 2.522890 -2.501020 0.350120 6.456720 -0.000001 -0.000000 -1.728360 -1.187080 0.662833 12.994200 -0.242716 4.980390 -90.717200 2.387550 -73.274600 5.348090 -0.000007 -0.000001 -62.021800 25.540100 -18.108100 24.328600 0.000019 0.000005 7.376040 15.883800 -25.315500 22.291600 -0.000001 0.000005 12.904400 5.199050 2.743120 12.994500 -0.242716 -4.980390 88.122600 9.838690 -79.140900 -5.348130 -0.000001 -0.000004 -60.973900 28.636500 -9.363620 -24.328900 0.000322 -0.000009 1.241120 2.136940 -30.184600 -22.291500 -0.000108 -0.000004 15.429800 5.408480 -3.214450 -2.192480 -6.469440 -0.000000 -178.364000 -9.932870 -8.585900 39.081100 -0.000007 -0.000012 -0.260505 0.365215 35.500400 40.985400 -0.000006 -0.000013 2.608900 3.630430 -73.290000 11.754300 -0.000000 0.000003 -0.000220 -0.002005 -16.653000 -2.192510 6.469440 -0.000001 179.757000 13.610100 156.705000 -39.081100 -0.002282 -0.040193 0.074064 -0.054054 52.649600 -40.985400 0.000008 0.000006 5.386320 -0.162576 -60.614800 -11.754300 -0.000006 -0.000006 -0.016061 -0.144397 -22.466200
0.000000 0.000000 0.000000 0.000000 0.000000 -0.000000 1.786540 90.026400 -34.821400 89.024900 -2.206830 3.274750 15.735700 0.000005 -0.000001 84.985300 80.947000 -84.999600 8.984550 -0.406207 -0.000000 10.273200 -1.572510 0.112762 16.377300 -0.000001 -0.000001 1.812090 -2.586290 0.375205 6.456720 -0.000001 -0.000000 -2.407240 -1.195030 0.951115 12.994200 -0.242716 4.980390 -90.666900 2.247300 -73.466600 5.348090 -0.000007 -0.000001 -60.515000 25.108800 -20.041900 24.328600 0.000019 0.000005 8.243880 14.774400 -29.602700 22.291600 -0.000001 0.000005 13.400400 5.211220 2.437090 12.994500 -0.242716 -4.980390 88.098900 9.857940 -79.028000 -5.348130 -0.000001 -0.000004 -62.113900 29.174500 -7.600410 -24.328900 0.000322 -0.000009 1.578590 2.894530 -28.641200 -22.291500 -0.000108 -0.000004 14.662300 5.400310 -2.947120 -2.192480 -6.469440 -0.000000 -178.166000 -9.128560 -7.220930 39.081100 -0.000007 -0.000012 -0.247376 0.364659 34.152600 40.985400 -0.000006 -0.000013 2.448610 3.883120 -74.053500 11.754300 -0.000000 0.000003 -0.000259 -0.002297 -16.663600 -2.192510 6.469440 -0.000001 -178.898000 15.555200 155.773000 -39.081100 -0.002282 -0.040193 0.052900 -0.051804 43.773700 -40.985400 0.000008 0.000006 4.288030 1.926900 -59.785600 -11.754300 -0.000006 -0.000006 -0.015813 -0.142880 -22.403900
0.000000 0.000000 0.000000 0.000000 0.000000 -0.000000 1.490760 89.915100 -32.699600 89.009300 -1.244600 2.602420 15.735700 0.000005 -0.000001 83.702400 80.969700 -83.685800 8.984550 -0.406207 -0.000000 10.190300 -1.967870 0.208688 16.377300 -0.000001 -0.000001 1.060180 -2.659080 0.422894 6.456720 -0.000001 -0.000000 -3.138350 -1.254710 1.278810 12.994200 -0.242716 4.980390 -90.615200 2.102650 -73.687100 5.348090 -0.000007 -0.000001 -59.209800 24.376200 -21.741000 24.328600 0.000019 0.000005 9.270440 14.045700 -33.922500 22.291600 -0.000001 0.000005 14.243300 5.219930 2.214560 12.994500 -0.242716 -4.980390 88.079700 9.916220 -78.982500 -5.348130 -0.000001 -0.000004 -63.379600 29.021600 -5.971250 -24.328900 0.000322 -0.000009 1.664410 3.207580 -27.458400 -22.291500 -0.000108 -0.000004 14.335000 5.395120 -2.779590 -2.192480 -6.469440 -0.000000 -177.843000 -8.432590 -6.026930 39.081100 -0.000007 -0.000012 -0.271719 0.411855 33.415100 40.985400 -0.000006 -0.000013 2.245740 4.228860 -75.172400 11.754300 -0.000000 0.000003 -0.000309 -0.002664 -16.676700 -2.192510 6.469440 -0.000001 -177.473000 16.800200 154.884000 -39.081100 -0.002282 -0.040193 0.032518 -0.041084 35.428800 -40.985400 0.000008 0.000006 3.647590 2.732890 -59.619700 -11.754300 -0.000006 -0.000006 -0.015522 -0.141078 -22.329900
0.000000 0.000000 0.000000 0.000000 0.000000 -0.000000 1.149290 89.662900 -30.473500 88.994000 -0.595304 1.969290 15.735700 0.000005 -0.000001 83.006000 80.976200 -82.955200 8.984550 -0.406207 -0.000000 10.153700 -2.182310 0.295450 16.377300 -0.000001 -0.000001 0.394605 -2.743590 0.404239 6.456720 -0.000001 -0.000000 -3.855700 -1.396810 1.523180 12.994200 -0.242716 4.980390 -90.588400 2.040940 -73.914900 5.348090 -0.000007 -0.000001 -58.298000 23.336500 -23.012400 24.328600 0.000019 0.000005 10.418200 13.652900 -37.916400 22.291600 -0.000001 0.000005 15.195900 5.224860 2.088160 12.994500 -0.242716 -4.980390 88.070500 10.013600 -79.035400 -5.348130 -0.000001 -0.000004 -64.569800 28.367100 -4.542180 -24.328900 0.000322 -0.000009 1.676210 3.359590 -26.550600 -22.291500 -0.000108 -0.000004 14.393900 5.392480 -2.695000 -2.192480 -6.469440 -0.000000 -177.513000 -7.751610 -4.850110 39.081100 -0.000007 -0.000012 -0.291105 0.448573 32.982400 40.985400 -0.000006 -0.000013 1.926110 4.235430 -76.528200 11.754300 -0.000000 0.000003 -0.000345 -0.002927 -16.686100 -2.192510 6.469440 -0.000001 -175.801000 18.071300 153.518000 -39.081100 -0.002282 -0.040193 0.036549 -0.058375 29.662900 -40.985400 0.000008 0.000006 4.285370 4.859660 -59.918700 -11.754300 -0.000006 -0.000006 -0.015978 -0.143889 -22.445300
0.000000 0.000000 0.000000 0.000000 0.000000 -0.000000 0.729210 89.312000 -27.949700 88.836300 0.013706 1.417010 15.735700 0.000005 -0.000001 82.305400 80.986400 -82.124700 8.984550 -0.406207 -0.000000 10.109100 -2.394520 0.573005 16.377300 -0.000001 -0.000001 -0.026852 -2.779230 0.260328 6.456720 -0.000001 -0.000000 -4.382500 -1.499870 1.490970 12.994200 -0.242716 4.980390 -90.603100 2.112890 -74.065000 5.348090 -0.000007 -0.000001 -57.776800 22.353100 -23.880400 24.328600 0.000019 0.000005 10.994200 12.910000 -41.008800 22.291600 -0.000001 0.000005 16.053100 5.230330 1.946290 12.994500 -0.242716 -4.980390 88.092200 10.042900 -79.186200 -5.348130 -0.000001 -0.000004 -65.490000 27.762500 -3.629690 -24.328900 0.000322 -0.000009 1.594660 3.343850 -25.528100 -22.291500 -0.000108 -0.000004 14.308800 5.392010 -2.678960 -2.192480 -6.469440 -0.000000 -177.028000 -6.904720 -3.365710 39.081100 -0.000007 -0.000012 -0.294331 0.461198 32.546100 40.985400 -0.000006 -0.000013 1.767380 3.887690 -78.131700 11.754300 -0.000000 0.000003 -0.175967 -0.240201 -16.529100 -2.192510 6.469440 -0.000001 -173.870000 19.456300 151.510000 -39.081100 -0.002282 -0.040193 0.069121 -0.122282 28.290200 -40.985400 0.000008 0.000006 5.777840 6.679190 -59.238100 -11.754300 -0.000006 -0.000006 -0.015668 -0.141986 -22.367200
0.000000 0.000000 0.000000 0.000000 0.000000 -0.000000 0.200941 88.904300 -25.000700 88.618700 0.611230 1.056280 15.735700 0.000005 -0.000001 81.479200 81.038600 -81.092200 8.984550 -0.406207 -0.000000 9.975820 -2.631500 1.003390 16.377300 -0.000001 -0.000001 -0.066785 -2.765600 0.147947 6.456720 -0.000001 -0.000000 -4.564480 -1.503390 1.121900 12.994200 -0.242716 4.980390 -90.656300 2.292850 -74.023300 5.348090 -0.000007 -0.000001 -57.606000 21.739900 -24.298600 24.328600 0.000019 0.000005 11.421200 12.515000 -42.992300 22.291600 -0.000001 0.000005 16.675200 5.236120 1.796660 12.994500 -0.242716 -4.980390 88.097700 10.091900 -79.267300 -5.348130 -0.000001 -0.000004 -65.873800 27.898200 -3.311300 -24.328900 0.000322 -0.000009 1.474740 3.275400 -24.271800 -22.291500 -0.000108 -0.000004 14.123000 5.389950 -2.613300 -2.192480 -6.469440 -0.000000 -176.788000 -6.360930 -1.742770 39.081100 -0.000007 -0.000012 0.009675 -0.015060 32.715700 40.985400 -0.000006 -0.000013 4.867450 2.462260 -79.827100 11.754300 -0.000000 0.000003 -1.947900 -2.573390 -15.764600 -2.192510 6.469440 -0.000001 -173.219000 19.257700 150.346000 -39.081100 -0.002282 -0.040193 0.050954 -0.082268 30.080700 -40.985400 0.000008 0.000006 6.311510 7.034140 -57.162000 -11.754300 -0.000006 -0.000006 -0.017184 -0.151159 -22.744100
